<svg xmlns="http://www.w3.org/2000/svg" width="49.97" height="50" viewBox="0 0 49.97 50"><defs><style>.a{fill:#5cb134;}.b{fill:#fff;}</style></defs><g transform="translate(-830.03 -931)"><rect class="a" width="49.97" height="50" rx="24" transform="translate(830.03 931)"/><path class="b" d="M858.82,947.3a.7.7,0,0,0-1.109,0,1.019,1.019,0,0,0,0,1.276l5.621,6.536H844.785a.843.843,0,0,0-.776.9.853.853,0,0,0,.776.915h18.547l-5.621,6.524a1.036,1.036,0,0,0,0,1.289.7.7,0,0,0,1.109,0l6.951-8.084a.991.991,0,0,0,0-1.276Z"/></g></svg>