<svg xmlns="http://www.w3.org/2000/svg" width="49.97" height="50" viewBox="0 0 49.97 50"><defs><style>.a{fill:#5cb134;}.b{fill:#fff;}</style></defs><g transform="translate(-758.62 -931)"><rect class="a" width="49.97" height="50" rx="24" transform="translate(758.62 931)"/><path class="b" d="M780.281,964.8a.731.731,0,0,0,1.129,0,.979.979,0,0,0,0-1.258l-5.724-6.445h18.89a.841.841,0,0,0,.79-.891.851.851,0,0,0-.79-.9h-18.89l5.724-6.434a1,1,0,0,0,0-1.271.731.731,0,0,0-1.129,0l-7.08,7.971a.954.954,0,0,0,0,1.258Z"/></g></svg>